<svg xmlns="http://www.w3.org/2000/svg" viewBox="0 0 64 64"><defs><style>.cls-1{fill:#0097ce;}.cls-2{fill:#ccc;}.cls-3{fill:#e6e6e6;}.cls-4{fill:#e4202b;}.cls-5{fill:#fb5b00;}.cls-6{fill:#f8c600;}.cls-7{fill:#422d2d;}.cls-8{fill:#fe9c00;}</style></defs><g id="Layer_17" data-name="Layer 17"><path class="cls-1" d="M50.5,39.87c-.89,0-.54-1.25-.6-1.82a.6.6,0,0,1,.6-.6c.88,0,.53,1.24.6,1.82A.6.6,0,0,1,50.5,39.87Z"/><path class="cls-1" d="M50.5,44.53c-.89,0-.54-1.24-.6-1.82a.6.6,0,0,1,.6-.6c.88,0,.53,1.25.6,1.82A.6.6,0,0,1,50.5,44.53Z"/><path class="cls-1" d="M51.7,40.37a.61.61,0,0,1-.42-1c.43-.34,1.07-1.47,1.71-.86a.61.61,0,0,1,0,.85C52.73,39.53,52.08,40.42,51.7,40.37Z"/><path class="cls-1" d="M53.42,41.57H52.2a.6.6,0,0,1,0-1.2h1.22A.6.6,0,0,1,53.42,41.57Z"/><path class="cls-1" d="M52.57,43.64c-.38.06-1-.84-1.29-1a.59.59,0,0,1,0-.85c.64-.61,1.28.53,1.71.87A.6.6,0,0,1,52.57,43.64Z"/><path class="cls-1" d="M48.43,43.64a.6.6,0,0,1-.43-1c.44-.34,1.08-1.48,1.71-.87a.59.59,0,0,1,0,.85C49.45,42.8,48.81,43.7,48.43,43.64Z"/><path class="cls-1" d="M48.79,41.57H47.57a.6.6,0,0,1,0-1.2h1.22A.6.6,0,0,1,48.79,41.57Z"/><path class="cls-1" d="M49.29,40.37c-.37.05-1-.84-1.29-1-.55-.54.31-1.41.85-.85l.86.86A.61.61,0,0,1,49.29,40.37Z"/><path class="cls-2" d="M52.55,4.39H49.16a.61.61,0,0,0-.56.81c.1,0,0,3.63,0,3.74a.59.59,0,0,0,.6.65h3.29a2.41,2.41,0,0,1,2.4,2.4V53.08a2.41,2.41,0,0,1-2.4,2.4H11.45a2.41,2.41,0,0,1-2.4-2.4V12a2.41,2.41,0,0,1,2.4-2.4h3.31a.6.6,0,0,0,.6-.6c0-.07,0-3.85.05-3.79a.61.61,0,0,0-.56-.81h-3.4A7.61,7.61,0,0,0,3.85,12V53.08a7.61,7.61,0,0,0,7.6,7.6h41.1a7.61,7.61,0,0,0,7.6-7.6V12A7.61,7.61,0,0,0,52.55,4.39Z"/><rect class="cls-3" x="7.85" y="8.39" width="48.29" height="48.29" rx="3.6"/><path class="cls-4" d="M52.54,8.39H11.45A3.61,3.61,0,0,0,7.85,12v4.94a.6.6,0,0,0,.6.6H55.54a.6.6,0,0,0,.6-.6V12A3.61,3.61,0,0,0,52.54,8.39Z"/><path class="cls-3" d="M16.9,3.32A2.29,2.29,0,0,0,14.16,5.5v7c0,2.95,4.91,2.95,4.93,0v-7A2.19,2.19,0,0,0,16.9,3.32Z"/><path class="cls-3" d="M32.28,3.32A2.29,2.29,0,0,0,29.54,5.5v7c0,2.95,4.91,2.95,4.93,0v-7A2.19,2.19,0,0,0,32.28,3.32Z"/><path class="cls-3" d="M47.66,3.32A2.3,2.3,0,0,0,44.91,5.5v7c0,2.95,4.92,2.95,4.94,0v-7A2.19,2.19,0,0,0,47.66,3.32Z"/><path class="cls-5" d="M47.51,46.49a.43.43,0,0,1,0,.11.29.29,0,0,1,0,.1l-.06.11,0,0A19.45,19.45,0,0,1,45,49.13a1.33,1.33,0,0,1-.19.14,19.67,19.67,0,0,1-3.64,2.31,3.59,3.59,0,0,1-.34.17,21.55,21.55,0,0,1-2.28.9l-.78.25a20.83,20.83,0,0,1-14.51-1.15,3.84,3.84,0,0,1-.35-.18,19.62,19.62,0,0,1-3.64-2.3,1.33,1.33,0,0,1-.19-.14,19.45,19.45,0,0,1-2.41-2.27l0,0-.06-.11a.29.29,0,0,1,0-.1.45.45,0,0,1,0-.23v-.06c0-.15.08-.3.13-.45a15.88,15.88,0,0,1,6.24-8.61l.27-.19a11.5,11.5,0,0,1,1.16-.71l.1-.05a15.25,15.25,0,0,1,1.54-.74.53.53,0,0,1,.33,0,.6.6,0,0,1,.12,1.14l-.12,0-.73.33L32,44.49l6.47-7.42a8.11,8.11,0,0,0-.74-.34l-.12,0a.6.6,0,0,1,.12-1.14.53.53,0,0,1,.33,0,15.29,15.29,0,0,1,1.53.74.72.72,0,0,1,.23.12s0,0,0,0a11.87,11.87,0,0,1,1.29.8,15.86,15.86,0,0,1,6.24,8.62c.05.15.09.3.13.45v.06A.49.49,0,0,1,47.51,46.49Z"/><path class="cls-1" d="M14.65,21.12a.6.6,0,0,1-.6-.6V19a.6.6,0,0,1,.6-.6.6.6,0,0,1,.6.6v1.5A.6.6,0,0,1,14.65,21.12Z"/><path class="cls-1" d="M14.65,26.83a.6.6,0,0,1-.6-.6v-1.5a.6.6,0,0,1,.6-.6.6.6,0,0,1,.6.6v1.5A.6.6,0,0,1,14.65,26.83Z"/><path class="cls-1" d="M16.13,21.73a.61.61,0,0,1-.42-1l1.05-1.05a.59.59,0,0,1,.85,0,.61.61,0,0,1,0,.85l-1.06,1.05A.58.58,0,0,1,16.13,21.73Z"/><path class="cls-1" d="M18.23,23.2H16.74a.6.6,0,0,1,0-1.2h1.49A.6.6,0,0,1,18.23,23.2Z"/><path class="cls-1" d="M17.18,25.73a.58.58,0,0,1-.42-.17L15.71,24.5a.59.59,0,0,1,.84-.84l1.06,1.05A.6.6,0,0,1,17.18,25.73Z"/><path class="cls-1" d="M12.12,25.73a.6.6,0,0,1-.42-1l1.05-1.05a.59.59,0,0,1,.85,0,.58.58,0,0,1,0,.84l-1,1.06A.59.59,0,0,1,12.12,25.73Z"/><path class="cls-1" d="M12.57,23.2h-1.5a.6.6,0,0,1,0-1.2h1.5A.6.6,0,0,1,12.57,23.2Z"/><path class="cls-1" d="M13.18,21.73a.6.6,0,0,1-.43-.18L11.7,20.5a.6.6,0,0,1,.85-.85l1,1.05A.61.61,0,0,1,13.18,21.73Z"/><path class="cls-1" d="M14.15,38.57c-.89,0-.53-1.24-.6-1.84a.6.6,0,0,1,.6-.6c.89,0,.53,1.25.6,1.84A.6.6,0,0,1,14.15,38.57Z"/><path class="cls-1" d="M14.15,43.31c-.89,0-.53-1.24-.6-1.84a.6.6,0,0,1,.6-.6c.89,0,.53,1.25.6,1.84A.6.6,0,0,1,14.15,43.31Z"/><path class="cls-1" d="M15.38,39.08a.6.6,0,0,1-.43-1c.45-.35,1.08-1.49,1.73-.88s-.53,1.28-.88,1.72A.58.58,0,0,1,15.38,39.08Z"/><path class="cls-1" d="M17.13,40.31c-.6-.07-1.82.28-1.84-.6s1.24-.54,1.84-.61A.61.61,0,0,1,17.13,40.31Z"/><path class="cls-1" d="M16.25,42.41a.59.59,0,0,1-.42-.18c-.35-.44-1.49-1.08-.88-1.72s1.29.53,1.73.87A.61.61,0,0,1,16.25,42.41Z"/><path class="cls-1" d="M12.05,42.41a.61.61,0,0,1-.42-1c.44-.34,1.08-1.49,1.72-.87s-.53,1.28-.88,1.72A.58.58,0,0,1,12.05,42.41Z"/><path class="cls-1" d="M12.42,40.31c-.59-.07-1.81.28-1.84-.6s1.25-.54,1.84-.61A.61.61,0,0,1,12.42,40.31Z"/><path class="cls-1" d="M12.93,39.08a.6.6,0,0,1-.43-.18c-.34-.44-1.49-1.08-.87-1.72s1.28.53,1.72.88A.6.6,0,0,1,12.93,39.08Z"/><path class="cls-1" d="M49.57,21.09a.6.6,0,0,1-.6-.6V19a.6.6,0,0,1,1.2,0v1.49A.6.6,0,0,1,49.57,21.09Z"/><path class="cls-1" d="M49.57,26.8a.6.6,0,0,1-.6-.6V24.71a.6.6,0,0,1,1.2,0V26.2A.6.6,0,0,1,49.57,26.8Z"/><path class="cls-1" d="M51,21.71a.61.61,0,0,1-.42-1l1.05-1.05a.6.6,0,0,1,.85.85l-1.05,1.05A.6.6,0,0,1,51,21.71Z"/><path class="cls-1" d="M53.15,23.18H51.66a.6.6,0,0,1,0-1.2h1.49A.6.6,0,0,1,53.15,23.18Z"/><path class="cls-1" d="M52.1,25.71a.65.65,0,0,1-.43-.17l-1.05-1.06a.6.6,0,0,1,.85-.85l1.05,1.06A.6.6,0,0,1,52.1,25.71Z"/><path class="cls-1" d="M47,25.71a.6.6,0,0,1-.43-1l1.06-1.06a.6.6,0,0,1,.85.85l-1.06,1.06A.63.63,0,0,1,47,25.71Z"/><path class="cls-1" d="M47.48,23.18H46A.6.6,0,0,1,46,22h1.49A.6.6,0,0,1,47.48,23.18Z"/><path class="cls-1" d="M48.09,21.71a.59.59,0,0,1-.42-.18l-1.06-1.05a.61.61,0,0,1,0-.85.59.59,0,0,1,.85,0l1.06,1.05A.61.61,0,0,1,48.09,21.71Z"/><path class="cls-6" d="M47.51,46.49a.43.43,0,0,1,0,.11.29.29,0,0,1,0,.1l-.06.11,0,0A19.45,19.45,0,0,1,45,49.13a1.33,1.33,0,0,1-.19.14H41.13v2.31a3.59,3.59,0,0,1-.34.17,21.55,21.55,0,0,1-2.28.9l-.78.25V49.27H26.27V52.9a22.12,22.12,0,0,1-3.05-1.15,3.84,3.84,0,0,1-.35-.18v-2.3H19.23a1.33,1.33,0,0,1-.19-.14,19.45,19.45,0,0,1-2.41-2.27l0,0-.06-.11a.29.29,0,0,1,0-.1.45.45,0,0,1,0-.23v-.06c0-.15.08-.3.13-.45h6.24V37.25l.27-.19a11.5,11.5,0,0,1,1.16-.71l.1-.05a15.25,15.25,0,0,1,1.54-.74.53.53,0,0,1,.33,0v1.19l-.73.33.73.84v8H37.73V37.92l.74-.85a8.11,8.11,0,0,0-.74-.34V35.54a.53.53,0,0,1,.33,0,15.29,15.29,0,0,1,1.53.74.72.72,0,0,1,.23.12s0,0,0,0a11.87,11.87,0,0,1,1.29.8v8.62h6.24c.05.15.09.3.13.45v.06A.49.49,0,0,1,47.51,46.49Z"/><path class="cls-7" d="M40.17,32.55A.6.6,0,0,0,39,32.4a6.59,6.59,0,0,1-4.78,5.26,1.39,1.39,0,0,0-1.05-.5h-2.3a1.35,1.35,0,0,0-1,.5A6.57,6.57,0,0,1,25,32.4a.6.6,0,0,0-1.19.15,7.77,7.77,0,0,0,5.65,6.26A1.4,1.4,0,0,0,30.85,40h2.3a1.39,1.39,0,0,0,1.36-1.22A7.76,7.76,0,0,0,40.17,32.55Zm-7,6.28h-2.3c-.1,0-.18-.09-.18-.28a.19.19,0,0,1,.18-.19h2.3c.1,0,.18.09.18.28A.19.19,0,0,1,33.15,38.83Z"/><path class="cls-8" d="M41.9,30.05h-.49a9.47,9.47,0,0,0-.61-2.82,9.36,9.36,0,0,0-6.17-5.63c0-3.43-5.26-3.43-5.26,0a9.36,9.36,0,0,0-6.17,5.63,9.47,9.47,0,0,0-.61,2.82c-.46,0-1.07,0-1.09.6v1.82a.6.6,0,0,0,.6.6H41.9a.6.6,0,0,0,.6-.6V30.65A.6.6,0,0,0,41.9,30.05Zm-17.73-2H26.8a.6.6,0,0,0,0-1.2H24.67a8.2,8.2,0,0,1,4.7-4V26.1a.6.6,0,0,0,.6.6H34a.6.6,0,0,0,.6-.6V22.84a8.2,8.2,0,0,1,4.7,4H37.2a.6.6,0,0,0,0,1.2h2.63a8.65,8.65,0,0,1,.36,2H23.81A8.65,8.65,0,0,1,24.17,28.07Z"/></g></svg>